<svg width="133" height="56" viewBox="0 0 133 56" fill="none" xmlns="http://www.w3.org/2000/svg">
<path d="M15.84 30.8V28.68H21.76C22.4667 28.68 23.0267 28.4933 23.44 28.12C23.8533 27.7333 24.06 27.2 24.06 26.52C24.06 25.8133 23.8533 25.2733 23.44 24.9C23.0267 24.5267 22.4667 24.34 21.76 24.34H16.16V35H13.5V22.06H21.52C22.24 22.06 22.9133 22.1467 23.54 22.32C24.18 22.4933 24.7333 22.76 25.2 23.12C25.68 23.48 26.0533 23.94 26.32 24.5C26.5867 25.06 26.72 25.7333 26.72 26.52C26.72 27.2933 26.5867 27.9533 26.32 28.5C26.0533 29.0467 25.68 29.4933 25.2 29.84C24.7333 30.1733 24.18 30.42 23.54 30.58C22.9133 30.7267 22.24 30.8 21.52 30.8H15.84ZM33.3916 35.22C32.4049 35.22 31.5049 35.0067 30.6916 34.58C29.8916 34.14 29.2516 33.5333 28.7716 32.76C28.3049 31.9733 28.0716 31.0667 28.0716 30.04C28.0716 28.9867 28.3116 28.0733 28.7916 27.3C29.2716 26.5267 29.9182 25.9267 30.7316 25.5C31.5582 25.06 32.4916 24.84 33.5316 24.84C34.6782 24.84 35.5982 25.0733 36.2916 25.54C36.9982 25.9933 37.5116 26.6133 37.8316 27.4C38.1516 28.1867 38.3116 29.0667 38.3116 30.04C38.3116 30.6267 38.2182 31.2267 38.0316 31.84C37.8449 32.44 37.5582 33 37.1716 33.52C36.7849 34.0267 36.2782 34.44 35.6516 34.76C35.0249 35.0667 34.2716 35.22 33.3916 35.22ZM34.2316 33.22C35.0182 33.22 35.6982 33.0867 36.2716 32.82C36.8449 32.5533 37.2849 32.18 37.5916 31.7C37.8982 31.22 38.0516 30.6667 38.0516 30.04C38.0516 29.36 37.8916 28.7867 37.5716 28.32C37.2649 27.84 36.8249 27.48 36.2516 27.24C35.6916 26.9867 35.0182 26.86 34.2316 26.86C33.1249 26.86 32.2649 27.1533 31.6516 27.74C31.0382 28.3133 30.7316 29.08 30.7316 30.04C30.7316 30.68 30.8782 31.24 31.1716 31.72C31.4649 32.1867 31.8716 32.5533 32.3916 32.82C32.9249 33.0867 33.5382 33.22 34.2316 33.22ZM38.0516 25.06H40.6516V35H38.2316C38.2316 35 38.2116 34.8733 38.1716 34.62C38.1449 34.3533 38.1182 34.02 38.0916 33.62C38.0649 33.22 38.0516 32.8267 38.0516 32.44V25.06ZM42.3047 25.06H50.0247V27.08H42.3047V25.06ZM44.8647 22.34H47.4647V35H44.8647V22.34ZM54.6566 20.7V22.98H51.6366V20.7H54.6566ZM51.8366 25.06H54.4366V35H51.8366V25.06ZM57.0281 25.06H59.6281V35H57.0281V25.06ZM64.2481 24.84C64.8615 24.84 65.4281 24.92 65.9481 25.08C66.4681 25.24 66.9215 25.4867 67.3081 25.82C67.6948 26.1533 67.9948 26.58 68.2081 27.1C68.4215 27.6067 68.5281 28.2133 68.5281 28.92V35H65.9281V29.38C65.9281 28.54 65.7215 27.9267 65.3081 27.54C64.9081 27.14 64.2481 26.94 63.3281 26.94C62.6348 26.94 62.0081 27.0733 61.4481 27.34C60.8881 27.6067 60.4348 27.9467 60.0881 28.36C59.7415 28.76 59.5415 29.18 59.4881 29.62L59.4681 28.6C59.5348 28.1333 59.6881 27.68 59.9281 27.24C60.1681 26.8 60.4881 26.4 60.8881 26.04C61.3015 25.6667 61.7881 25.3733 62.3481 25.16C62.9081 24.9467 63.5415 24.84 64.2481 24.84ZM70.4953 31.7H72.8953C73.042 32.1533 73.342 32.5267 73.7953 32.82C74.262 33.1 74.8686 33.24 75.6153 33.24C76.122 33.24 76.5153 33.1933 76.7953 33.1C77.0753 33.0067 77.2686 32.8733 77.3753 32.7C77.482 32.5133 77.5353 32.3067 77.5353 32.08C77.5353 31.8 77.4486 31.5867 77.2753 31.44C77.102 31.28 76.8353 31.1533 76.4753 31.06C76.1153 30.9667 75.6553 30.88 75.0953 30.8C74.5353 30.7067 73.9953 30.5933 73.4753 30.46C72.9553 30.3267 72.4953 30.1533 72.0953 29.94C71.6953 29.7133 71.3753 29.4333 71.1353 29.1C70.9086 28.7533 70.7953 28.3333 70.7953 27.84C70.7953 27.36 70.9086 26.9333 71.1353 26.56C71.3753 26.1867 71.702 25.8733 72.1153 25.62C72.542 25.3667 73.0353 25.1733 73.5953 25.04C74.1686 24.9067 74.782 24.84 75.4353 24.84C76.422 24.84 77.242 24.9867 77.8953 25.28C78.5486 25.56 79.0353 25.96 79.3553 26.48C79.6886 26.9867 79.8553 27.5733 79.8553 28.24H77.5553C77.4486 27.7467 77.2353 27.3933 76.9153 27.18C76.5953 26.9533 76.102 26.84 75.4353 26.84C74.782 26.84 74.2886 26.94 73.9553 27.14C73.622 27.34 73.4553 27.6133 73.4553 27.96C73.4553 28.24 73.5553 28.46 73.7553 28.62C73.9686 28.7667 74.2753 28.8867 74.6753 28.98C75.0886 29.0733 75.602 29.1733 76.2153 29.28C76.7353 29.3867 77.2286 29.5067 77.6953 29.64C78.1753 29.7733 78.602 29.9467 78.9753 30.16C79.3486 30.36 79.642 30.6333 79.8553 30.98C80.082 31.3133 80.1953 31.74 80.1953 32.26C80.1953 32.9 80.0086 33.44 79.6353 33.88C79.2753 34.32 78.7553 34.66 78.0753 34.9C77.3953 35.1267 76.582 35.24 75.6353 35.24C74.7953 35.24 74.0686 35.1533 73.4553 34.98C72.8553 34.7933 72.3553 34.56 71.9553 34.28C71.5553 33.9867 71.242 33.68 71.0153 33.36C70.802 33.0267 70.6553 32.7133 70.5753 32.42C70.4953 32.1267 70.4686 31.8867 70.4953 31.7Z" fill="black"/>
<path d="M112.062 22.5345C112.384 21.6639 113.616 21.6639 113.938 22.5345L115.001 25.408C115.102 25.6818 115.318 25.8976 115.592 25.9988L118.465 27.0621C119.336 27.3843 119.336 28.6157 118.465 28.9379L115.592 30.0012C115.318 30.1024 115.102 30.3182 115.001 30.592L113.938 33.4655C113.616 34.3361 112.384 34.3361 112.062 33.4655L110.999 30.592C110.898 30.3182 110.682 30.1024 110.408 30.0012L107.535 28.9379C106.664 28.6157 106.664 27.3843 107.535 27.0621L110.408 25.9988C110.682 25.8976 110.898 25.6818 110.999 25.408L112.062 22.5345Z" fill="black"/>
</svg>
